<mxfile host="app.diagrams.net" modified="2021-10-11T17:36:08.671Z" agent="5.0 (Windows NT 10.0; Win64; x64) AppleWebKit/537.36 (KHTML, like Gecko) Chrome/94.0.4606.71 Safari/537.36" etag="DMmVrSEsWiU9Ulm8Sgt7" version="15.4.3" type="github">
  <diagram id="U-xzIw-__uY4wGhflpQ_" name="Page-1">
    <mxGraphModel dx="1022" dy="468" grid="1" gridSize="10" guides="1" tooltips="1" connect="1" arrows="1" fold="1" page="1" pageScale="1" pageWidth="1169" pageHeight="827" math="0" shadow="0">
      <root>
        <mxCell id="0" />
        <mxCell id="1" parent="0" />
        <mxCell id="wK7VieCMkAIBVdtHB5rd-6" style="edgeStyle=orthogonalEdgeStyle;rounded=0;orthogonalLoop=1;jettySize=auto;html=1;" edge="1" parent="1" source="wK7VieCMkAIBVdtHB5rd-1" target="wK7VieCMkAIBVdtHB5rd-4">
          <mxGeometry relative="1" as="geometry">
            <Array as="points">
              <mxPoint x="380" y="280" />
              <mxPoint x="380" y="280" />
            </Array>
          </mxGeometry>
        </mxCell>
        <mxCell id="wK7VieCMkAIBVdtHB5rd-7" style="edgeStyle=orthogonalEdgeStyle;rounded=0;orthogonalLoop=1;jettySize=auto;html=1;entryX=0.5;entryY=0;entryDx=0;entryDy=0;" edge="1" parent="1" source="wK7VieCMkAIBVdtHB5rd-1" target="wK7VieCMkAIBVdtHB5rd-5">
          <mxGeometry relative="1" as="geometry" />
        </mxCell>
        <mxCell id="wK7VieCMkAIBVdtHB5rd-8" style="edgeStyle=orthogonalEdgeStyle;rounded=0;orthogonalLoop=1;jettySize=auto;html=1;entryX=0.5;entryY=0;entryDx=0;entryDy=0;" edge="1" parent="1" source="wK7VieCMkAIBVdtHB5rd-1" target="wK7VieCMkAIBVdtHB5rd-2">
          <mxGeometry relative="1" as="geometry" />
        </mxCell>
        <mxCell id="wK7VieCMkAIBVdtHB5rd-1" value="Annotating the dataset for glove, shoe" style="rounded=1;whiteSpace=wrap;html=1;" vertex="1" parent="1">
          <mxGeometry x="320" y="200" width="120" height="60" as="geometry" />
        </mxCell>
        <mxCell id="wK7VieCMkAIBVdtHB5rd-18" style="edgeStyle=orthogonalEdgeStyle;rounded=0;orthogonalLoop=1;jettySize=auto;html=1;" edge="1" parent="1" source="wK7VieCMkAIBVdtHB5rd-2">
          <mxGeometry relative="1" as="geometry">
            <mxPoint x="300" y="440" as="targetPoint" />
            <Array as="points">
              <mxPoint x="300" y="350" />
              <mxPoint x="300" y="440" />
            </Array>
          </mxGeometry>
        </mxCell>
        <mxCell id="wK7VieCMkAIBVdtHB5rd-2" value="YOLOv3" style="rounded=1;whiteSpace=wrap;html=1;" vertex="1" parent="1">
          <mxGeometry x="150" y="320" width="120" height="60" as="geometry" />
        </mxCell>
        <mxCell id="wK7VieCMkAIBVdtHB5rd-20" style="edgeStyle=orthogonalEdgeStyle;rounded=0;orthogonalLoop=1;jettySize=auto;html=1;" edge="1" parent="1" source="wK7VieCMkAIBVdtHB5rd-4" target="wK7VieCMkAIBVdtHB5rd-21">
          <mxGeometry relative="1" as="geometry">
            <mxPoint x="385" y="430" as="targetPoint" />
            <Array as="points" />
          </mxGeometry>
        </mxCell>
        <mxCell id="wK7VieCMkAIBVdtHB5rd-4" value="YOLOv4" style="rounded=1;whiteSpace=wrap;html=1;" vertex="1" parent="1">
          <mxGeometry x="325" y="320" width="120" height="60" as="geometry" />
        </mxCell>
        <mxCell id="wK7VieCMkAIBVdtHB5rd-36" style="edgeStyle=orthogonalEdgeStyle;rounded=0;orthogonalLoop=1;jettySize=auto;html=1;entryX=0.958;entryY=0.2;entryDx=0;entryDy=0;entryPerimeter=0;" edge="1" parent="1" source="wK7VieCMkAIBVdtHB5rd-5" target="wK7VieCMkAIBVdtHB5rd-21">
          <mxGeometry relative="1" as="geometry" />
        </mxCell>
        <mxCell id="wK7VieCMkAIBVdtHB5rd-5" value="RetinaNet" style="rounded=1;whiteSpace=wrap;html=1;" vertex="1" parent="1">
          <mxGeometry x="500" y="320" width="120" height="60" as="geometry" />
        </mxCell>
        <mxCell id="wK7VieCMkAIBVdtHB5rd-29" value="" style="edgeStyle=orthogonalEdgeStyle;rounded=0;orthogonalLoop=1;jettySize=auto;html=1;" edge="1" parent="1" source="wK7VieCMkAIBVdtHB5rd-10" target="wK7VieCMkAIBVdtHB5rd-28">
          <mxGeometry relative="1" as="geometry" />
        </mxCell>
        <mxCell id="wK7VieCMkAIBVdtHB5rd-10" value="Choosing the best model by comparing metrics like mAP and Accuracy" style="rounded=1;whiteSpace=wrap;html=1;" vertex="1" parent="1">
          <mxGeometry x="325" y="480" width="120" height="60" as="geometry" />
        </mxCell>
        <mxCell id="wK7VieCMkAIBVdtHB5rd-25" value="" style="edgeStyle=orthogonalEdgeStyle;rounded=0;orthogonalLoop=1;jettySize=auto;html=1;" edge="1" parent="1" source="wK7VieCMkAIBVdtHB5rd-21" target="wK7VieCMkAIBVdtHB5rd-10">
          <mxGeometry relative="1" as="geometry" />
        </mxCell>
        <mxCell id="wK7VieCMkAIBVdtHB5rd-21" value="" style="line;strokeWidth=2;html=1;" vertex="1" parent="1">
          <mxGeometry x="290" y="440" width="190" height="10" as="geometry" />
        </mxCell>
        <mxCell id="wK7VieCMkAIBVdtHB5rd-38" value="" style="edgeStyle=orthogonalEdgeStyle;rounded=0;orthogonalLoop=1;jettySize=auto;html=1;" edge="1" parent="1" source="wK7VieCMkAIBVdtHB5rd-26" target="wK7VieCMkAIBVdtHB5rd-37">
          <mxGeometry relative="1" as="geometry" />
        </mxCell>
        <mxCell id="wK7VieCMkAIBVdtHB5rd-26" value="Fully Developed Model for real time deployment" style="rounded=1;whiteSpace=wrap;html=1;" vertex="1" parent="1">
          <mxGeometry x="325" y="696.5" width="120" height="60" as="geometry" />
        </mxCell>
        <mxCell id="wK7VieCMkAIBVdtHB5rd-30" style="edgeStyle=orthogonalEdgeStyle;rounded=0;orthogonalLoop=1;jettySize=auto;html=1;entryX=1;entryY=0.5;entryDx=0;entryDy=0;" edge="1" parent="1" source="wK7VieCMkAIBVdtHB5rd-27" target="wK7VieCMkAIBVdtHB5rd-28">
          <mxGeometry relative="1" as="geometry" />
        </mxCell>
        <mxCell id="wK7VieCMkAIBVdtHB5rd-27" value="Trained Face verification model using Siamese Network with ResNet50 backend" style="rounded=1;whiteSpace=wrap;html=1;" vertex="1" parent="1">
          <mxGeometry x="510" y="575" width="120" height="80" as="geometry" />
        </mxCell>
        <mxCell id="wK7VieCMkAIBVdtHB5rd-31" value="" style="edgeStyle=orthogonalEdgeStyle;rounded=0;orthogonalLoop=1;jettySize=auto;html=1;" edge="1" parent="1" source="wK7VieCMkAIBVdtHB5rd-28" target="wK7VieCMkAIBVdtHB5rd-26">
          <mxGeometry relative="1" as="geometry" />
        </mxCell>
        <mxCell id="wK7VieCMkAIBVdtHB5rd-28" value="" style="shape=image;html=1;verticalAlign=top;verticalLabelPosition=bottom;labelBackgroundColor=#ffffff;imageAspect=0;aspect=fixed;image=https://cdn1.iconfinder.com/data/icons/feather-2/24/plus-circle-128.png" vertex="1" parent="1">
          <mxGeometry x="360" y="590" width="50" height="50" as="geometry" />
        </mxCell>
        <mxCell id="wK7VieCMkAIBVdtHB5rd-33" value="" style="edgeStyle=orthogonalEdgeStyle;rounded=0;orthogonalLoop=1;jettySize=auto;html=1;" edge="1" parent="1" source="wK7VieCMkAIBVdtHB5rd-32" target="wK7VieCMkAIBVdtHB5rd-28">
          <mxGeometry relative="1" as="geometry" />
        </mxCell>
        <mxCell id="wK7VieCMkAIBVdtHB5rd-32" value="Possible path planning&amp;nbsp;" style="rounded=1;whiteSpace=wrap;html=1;" vertex="1" parent="1">
          <mxGeometry x="150" y="585" width="120" height="60" as="geometry" />
        </mxCell>
        <mxCell id="wK7VieCMkAIBVdtHB5rd-37" value="" style="shape=image;verticalLabelPosition=bottom;labelBackgroundColor=#ffffff;verticalAlign=top;aspect=fixed;imageAspect=0;image=data:image/png,iVBORw0KGgoAAAANSUhEUgAAAIcAAABmCAYAAADh/4ItAAAAAXNSR0IArs4c6QAAIABJREFUeF7tfQd8VFX2/zczk0x6J71BCKETujQVFRTsirgq4lpXXdC1ryg/FV3sDUXsirqWXVyRIiAgVXqvoYRQ0nudybTM/3POfe/Ne5NJMhNlP8vfxGWTae/de+73nvM97Y6f0+l0ovOnUwIeJODXCY5OXLQmgU5wdGKjVQl0gqMTHJ3g6MSA7xLo1By+y+wP84lOcPxhltr3iXaCw3eZ/WE+4dfc3NwZ5/jDLLeYqJ+fn1cz9rNYLBzq0Ol0AAgnLT9IF1PHyjQXpxiaDC9d+zd1v1Zbg6V7enq/+8zaGl9rMT5PApLf6809vZLuf/FNsqxau6X8Oq2zWOv2f/yampp4aYWw5FV2LbIsRLXg1JdVnpdB5QEf7gvhvmDqxWgN1a3dv70p+vK59uaovtf/GoC8BYder/ceHKQ52hJweyqoI+CQ7+dpp7Z3v/bAcDZe96TBfAFHa9rSW83ozZzaA4d8jd8EDm92sTeD9cW2eXu99kD8/1uayJOGJRn8lnl2GBze7NpWd4wbXenotdozY+4Aac9stMqVpAt5ev23CP/3ALonzerpuso4ZYLpRQ61w+DwZrerF92TEL0BhTf3+T2FfLav1ZZ59AZ87XGy9sbfkil6/gSN5b8CjtbspR8R0zacFm/B055AzpXX29Js3hBgT2a+o5qNPmcwGHxzZWVBe7NwarWvGbiyWi3B4c11z5XF/l8dp7eAIc3h7XpwnMMXcPjy3t/bLfW0MO4cxdvFc9+R3grX2+v/L7zP05w6DI6OcgFvkShfvzUW/nsI1BtOpDaJ7YGrveu150GpvYvW7uWLW9xRGclzpgCYt+ul0Ry+aAX1IL29WWsT+62f90Vg8kJ4uyB/aHDIEdLWgOHtwnn7vta0U3suqS8A+G+/tzWgtaUp1BrFfaP9nsExd1n4pDnaA4e32sQXcHijiv/bC/xHuV+HwNHe4rb3urcgas+0uGuQc1mj/C8CrkPg8GZxPdnftkDjLaC8FWJb1+sEkXdS/M3g6Iig2wNCe697NzXv3nW279UR+Xg38rP/rt8Ejla9kHZitO0tSHuv/55iOdv3+uOAw9zkdEIU1bTJB34jODxd+2wvotozai/D6R4UU4/3bMZlOrIpvBlPa0E9n4JgTZ7A0RoQKDLulEDkhqWOLnRHP9cRofrymbbiIO4uqq9zaE/ztLaw3sZm2pqnT+Awm83OFpPzIs2nTrD5KpxWTZcvq3eW3+uuSTwtaHuL3NoQ2/vc/xQ4vF0sAgSZIFbXbmWBballb+IaaoA1O5vhbHaCfvPtpFoReo9cA0l/Nzc3n2WItLw83dd9MygyIa2q1qhcXusqtHMPbrXm/Z3NPI9vmsNkdqon1Cb3cAeHShDuKs8bbWLQG1iYVpsVdfV1KK8oR1FRCerqa2E2mWEym2BpsqLZ4WAR6wMMCA4KQnh4BBKTEtEnqxdCQ0P+awAhwDaYGlBTV4fqmmrU1dWiyWJlqdBc/AP8ERQUiLDQcISHhSE0NBTBQcHQ6/Q8RhnMrcVyfq+JtKWZfhM4vIl3KO/xoahY/gztfIulCcWlJTh85AgO5R7C0WPHUVxUjNraOpjNFhZ2UFAwjIFGGPwDoNPr0dzsgM1qRVOTBZYmC5x+Tjwz8ylcOX4CHM2O30uurV5H5+eHvQcPYtbs2aiprobNbuPFpk1g4DS4Dn46oU/9Df7wDwhASEgw4uJikZGejszMTHTPzERyQhIDh94vL+LvqSnau5ZPxT7EOTrqSSimRdgZxdx48n70Oh0aTY3YuXcvflr+EzZs2IiCgkL4BxgRn5AoCa8b77wjuYdx+213IDkxEQZjAAw6HRwOByxWKxrq61FeXo4Tp09j6OBByOndB81SeZysts8GUggc2/fswQcff4ykpCQkJSUiOioaocEh8Pf3h9PZDIvNitq6Ovznh4UIDwmB1W7HqdOnUVVeAYvVgsioSPTp2xsXXXghzh81Cukp6Vx801Hz2JqGaAsgvoHDzaz4qjkYCB6qv1xmxYmKygqs+3Ujflq2HAcOHmaBZGdnY2DOIPTt3RNpqamIioiAMSAAZeVl+ODTj3DX1NuRlpoCPz9RnKK+HtmYZhD/8OOyN284ky/AcX8vPaZ/BE6TyQR/Lu8Xu0HgkriPGKPD0YyZL87CXVNuQ1JiEiqra1FSVorjeXk4eOgwDh/ORVl5KSIjwzFs6BBccvHFGDJwECLDI30uHG5PS3hqNfldwMHKoJ3OKJmgenofPUcD2bF7B+bMfRdbtu5AbJd4XD5xIi675GJ079YNwcZA1gikom02G6yWJlRVVuL9Tz/CVZdfjSGDBsHg76/qs3Cy8EkoBp0een9/6A1tVzZpSLSqOUsZs7owWtKh7pqP7ke7W5g1M/8TqNC69fSouroGL7/1Bh5/4EFEx8QwFwkICGDzSBCqrK7Brn378NOyZdi6ZQubywsvGI17774b/fv25/l5+mkfCB4/JT3pIodnBRyt7Tx3r0UGFfGKhUsW4bPP58MJHS6bMAGXjR+HjJRUBOj1sDscTDTJJMiagR7Tznzv4w/Qq1cfXH/V1cw3eCFl5k+/JTPCz9P/vG3v07RtaQM1aq9CnpP6OQJHs6MZDgdxDTFmuXOMuIZwSpzMSz6b/ylmPv53BAYFw9lMn3HwmPV6HZtRg8EfpqYm5B49iqXLl2P9uvUIDgnErVNuwXVXXYOwkFDhpKnm2S44PDcrtkCM7+BwMcw2zXWbnoxqgejPz7+ajznvzMWAnEF4cNp09OvdC05HM2sJ2nWyZvHTG1hoAgBOWK1WfPnNV6htaMQDf7kf/v7k0XiI3kqLoSFM3gjIKV/ObddL9yCPRCyz68qKJyYBVG1GlU0j3fv7JYuwd88uPPXI32EI8BdeisMBu90Ou83G2oe0hcHfgMDAIEBH2nUP3v/oQxw5nIubb5mM+++5D4HGQO/NTBtxKXdQkUn3uh3STJzDC3C0tztlgdHEiXDOfe999OnbF3ffeTe6d+3KO4iJlx/Y3BBB9SMXjze/iJ+w+nY4sG7DOqxevw5PPvIEQkM8uKpS56bCd2RC7E6t3WIOLj6lssZ+fsg/fQqFBYWIjo5GdGQ0QkKDYTQa4S9VaiumSQaHDCS1BgNgd9jx1tx3EREajNtvvV3wIQn0NDTWPnYHu+4O8naczdDp9AgIMOJMUTH++e032LhhA6699ircdfudMAYY29isrp3gyTUWQySZSsKRZEOg7Bg4VF5Ha6NqDSQkQFKvx/OO4u8zZiA5OR1PPPYYYqIiWR3TgOSB+REw1IhUtemSAE/kHcecD+cxOJKTEtm2k2p2/2kBDiEP148ncHhQQifPnMHWnTuZL5gaG0Gji4qOQHJCImJiYhETE4WoyCiOsZBnopPcUBqrzE8ICHX19Xhq1rO4ZsJlGDPqAuhII6piQ2waJXJLn7XbrKxJ6Tl/QwAaGk34+PPPsXrVSsyY8TjGXTze47zdiaZHcCiioJu6Js2aQ+9lI7W50eRUfVa1ZK3nUFpzoQg4n3/xGVavXoOHH3oESQlxsFptLFDy+2lgyg6SbDF5ABwzYLsstIjZ3IhP5n+G26f+mQNI9J6cAQMQYCCXUaX22URoeQe/zjkgZtQuoKg4i4xMtcolc9JksaCuoR7lFZUoLi1FYWEhqiqrOBhH4A4NCWaSmZKQyPGLuC5dEBERiUaTCQcOHURYWBje/eA9PPXIY+jWNdMVy5CGodyPU50CKA47xW9Ii9ih1xtQXV2Ld+bNRUN9NZ6f9QIiI6JannAgkWF3nqR+7GEn8VP/PXCo978fYDab8OysZ5EzYCDGXjgW73/8IUqKS8mOiKMUdH6sVkkLkFDsVjvMVgusNgvsNoe4ms4PAf4GWMwWZGSkI//UKQQGBmP6ffcgPq4L7DY7g4UCX8I06Vj96w0GJnrkDlOkkgDJHo1OzxqNgBIWGsoBKjU45BgD7XEKrPlBJ0yfTsekme5VWVWFwuJinDpzBqfPFKC+to69q7DQIHa3C4pL8fPPPyO7R3c0Nplx86QbkZSchNjYWESFR3DshswHaw3WNuJHBgvJg+bV7CCA6HE87wTeeON1TJk6BReNvdhjHESjkTTKUkpx8OZwIyPOjoJDbDhVbsCz5lAjUnFlJR+/sqIcL738Em6//XakpqZh//4DqK2v491YUV6O8spKlJdXMGAoWGQymRkoLrdSYF+OPNKim5uaEBISikmTrkF0VCR/xmazw2ojr8HBwiaA6PQGVvekcgkcorOLFllPeAN0OkwcfykS4uMVrSxcVLqG+O3gXI3sPYlzLCj4RdyIfjucDlgsVvY0Ghoa0dDYgCazGf/64Qes+nklwkKCoDcYERwiOAtpFdIwKYlJ6NqtG9JSkpGYmIDw8HDmE7L8ZE/IziamGfR73rx5iIuPx61TbhMxFdUxKG11FCrrIxF28di1lr4RUtmsSCDTmGTa7a0EucQtXa/TApcUF+K5Wc9hwKDBuPyyCUhNSRUag/5rdjJhMzeZUVZWjhMnT2L7rp3IzT2KgoIimE0m2JvtbO9Dw8KRkBCLnslx2LZ7L8qqanH3bTfjxpv/zO4hmSBaSCJ07Aoz3xFGVoSjlK2pOnfED8HBwRx3cAmQkntMBBikzAMcdoCvKwi07I0Q8MitZrARaEhb6fTYsnUj5r33LnbuPYzE+C6wWJ1wSkE7ua+ZNFeAvz9CQ0KRkJSAbt26on+f3sjomoGU5GR2XUlj0LwoBLBn3z4s+P5fyOzaDXfecbcy5hahbHf+pFYULd4sBOM7OCRp0TIqSFNu7F64obVmSpzD6URlZTn+/uQTOJqXj8SkJFx5xZUYPXIk4uPiWE0zHWDBCZVKKpsSWIVFRSgrLUV5ZRXbb1LDx48fRXpUIBqaTMg7dRoBOiOefmY24uKTeHcJIigRW4l30IXl0Qpt5Kb9pPiE2ExatsoLyVyAtIjQJDIIKbbBsQoCC7m6UoCPAnTrVi3HwoXfISImBvFR0dh1IA/HTxezmdP7iUgqXVp210nLkSwoMEZJw/j4OKQkJyE1NZXltH3nDqxduwaBBgOuufoqTJlym0jcyXOUNbwqP64hVi3Ihqw5xNqS6fWJkHq8nvykIkS3IIImO+3HgqPI4YuzX8CeA4dgDDbi+PE8dM3oiokTLuNcAhE44hoc5ZSZPmt8Herq6rCeQuw/r8TBw4fRUN+AR+66GZOuvxq/bvoVu/cexj33P4TY+ASOF4gdLeIjnPCinS0daaTTE0ik12j8Oj/oaKH4varnVRNXez4KsZMAQ1qKAEmcgMbOnMlBSTcntq5fhWXLl2Ly9Vdz0vDFtz7A7oNHEB4ehh49sjFyxHmICo9CYHAQgoKD2Jz4G/Q8fza5tXXYvnMXTubnM4AM/jp0756J0sJiTJ92Hy648BIxRxHt04xYYzIEi/GwlGJmMkQ6CA5PkRQVILSERG3J+G9SwyS0xT8uxNx583DphAmIS4jHmrVrkZ+fj5SkZFx00ViMHjGSQULCocAQgeX48WOY/8+vsHXHLt49A/v3R6DRiKhgP9w46Vrs2r0Ta9b9ivETr0HO4GEICQ6WSjxkzSAMHC+87CZLqp0BwSDSKccPqF1pzaylo6/ErF21Ky65i1gMaRnSLOXlZVi5eAH27N2Fmydfj5qaOixauR5VdWYcP5GH2vp65OQMwJ1Tp2Lo4CEcHWWibPCHzWbF4aNH8NOKFVixfAVrqZEjhmPo0KHY9OtmNNbX4OmnZyIpkfJLUm6pQ+BQO75+vnsrAm7tgUMVjFAhUWHe7JramXe8+upr2LxtJx584AGMG3cxNm3djH8vWIDcw7nompmJa6+9FpdedDHHDkjAf396BjZt3YqwkDDcd9dduGLCBCxfuQI7Nq/D1Jsmcd3E1/9aiNOlVUjL6oGZT85AVtdMjp+4KoG0XJq4hIh2ugAuC7nNgJ4UjldS6qognbwtiYssXr4M33zzNaL0DsTHRePmm27EgQOHsXLjVtz/l2koLS3Dq3PmYPfevchIT8XLL8xC7159WXsVFJdg6c8rsPqXNWisb8CIkcMwedIkpCal4p0572Lzlk2Y/td7cdU117N7KxPjlpFit83L9EnkZtSJSpfm6CA4tNCQYsxS/ESTmtfwE5eaYzJHmsBhw+FDB/HWnHdQV9eId+a8iejoGJRXlmPdxg1YuXIVTp85g27dumH0qNEcKVzzy1pMuvZa1NTVYM/+/Wx/TxzPw6ZfN6JnVjeMHNIP6zdtR2FZDWpMZjz5xBMYNmggbHa7UpcmLxyr/2YnoqIikZGWKpE5F7BVrESjgtUxAhpffUO9JGDZfgpdQsy3qakJs197Bft37UJmSiKyM9OQM6A/lqz4BSeLSnHrlFtx+vRpvn6vHj3w88rViImNxJhRY3Dg0GFOvFGwrXevXhh30VgMHjQIURGRTERn/WM2xl4wBnfdeSciIqIER5Cbnz0E8FqaFjlx5+nNPoOjUeP0yPvPpcHkm2jtmRC3dASlRMtlxk8+w9Gjx3CmoBDDhgwhL5LVMPn61TW12LpjG5YuX4YjuUfIMUCvnr0wdcrNzNxLSkuxZNlP2L59B6qqqpgkpqcmw9ZMSTkr9AFGREZGwGj0h0Ny73QUm2DTRuF38jaAP914AyZfdw0MhgDecAQYik3IeRK9nv1b5g5EDuVwM+3sT+d/gYWLl7IZEnxG5H1k2ZAJraupZZAY9EBURCgaG0w4eaYQkVSllpyIKy+fiKEDByPAPwA/rViOf33/Hza9AYFGDB08GOPGjkWPbpkwBgUyAMiM1jU0cAHUgH59eUPR+CjrTHLzYNXd+IVasyuEUctDKM5B4XO3MofWOKefudEdHDIWtQTIVTuqvrEUyJHAQdqDglO0e5lCsa0XSSwK8lBSjTQF+fElJaXYvHUrft2yGWcKihBg9Oe4ACXnqEywtLSUzQbxg5jYOBj89Zy0MgYGYtjQoejaNQNBgcFsw4nIkd/SZLVg+apVKC0px6N/m4axF1wAg8HIxJFAQJ+XQSSbGAJ0YGAgA0HwCQdWrlqNZ16YjUGDB2Lk8OG8czmaSeUFNhuqq6qxYdNGVFdW8+fIPaS4R31tDf8dGhaKzG7deKwmsxlFRYUsj17ZPTD2wgvRr3dvjqaSyaDIMeVWGAAMYpEmkMk2xW/Iu1HcMDe/oFVGoKy4CjS+g8MkgrlS2NlVOuwie4KRCM3hUlYqjSINmGw8gYO4BxFOdvl0lHWVIqR+gIOyk1YbezamxgYuuTtTVIiCggIOW1N9ZnFxMatfWgi6BtWB0DUCjRSG92dPoEuXLkjoEoekpAQkUTg7JhbR0VHYe+gQ5n/9Habfew/OGzYUAQFBrbB4z/uFwLtt+3a8+NobeOTBaeie0RVVNTUor6hAQVERikpKUFZWyom6JksTTKYm2B1OWC0m1NXWMsGOiAhHVlYWwsJDOZGXmpyIjLQ0pCSnMs8yBgchgBN75FZK9aXsAVGtrIjUCJ6hl2QnCd69LcTdOWkr7iFN1ydvxdRoklN3bnzHg81qza2VwgZyUQzt+GanFPl0iqIfzgTK2UxaLi7yoTS2FVarBTaLlcFAAiKSRjvzi2+/RWOjCfFJKaJOE070yOrO8ZHa2lqOVJJdoiLeyIgwhIeFIzQ0DHsPHsLY80fhjqm3ISQ0rDWt2eJ5YXIcWPD9f7Dgh0Xo06sHJ9Nq6mrR0NAAm9XOqxQUFISYqCiUlZdzaD0wOBjVVVUMjqED++Pqyy9HakoaR0nJZBEQAgLpdyD/kzeLbCpkrYRmEWdhN5zdb/Fbid8oxFBWH3QFVdivhU+hNTV0bQKHe/Vcq2ZFAYdbvEh7H7UWUcPVFezgd6iyjgxyyVmg6KUSlFJrOaX2U0Q6KX5x7MhRVrGBwUY8+8I/cCL/JCIjo+EfYGCbHRsdiR7duyMxIZFD63knT6K4qITrUzm6oTewW5iRloLnnvk/zqp6/yNiJ+9/+D5WrFytmBPKsQQFBnHENzMjHYYAPQrPFODA4VwO4xv8jairq2egTr/vbiae8g6Vi4JEglDwlxZllcSVONLrojbifa5gnXjkSVWonvPkcEqTF8TSyZV1voFDZbjc6aerKkqoNnpdJqOKmZELoaRcDw/E01zcnncvqKmtrsZzs16Aze7A9L/ehw8//xSbft3KJIps84jhQ1FVU827NSI8DH169kSPrCz4+wdwUmzNug2oa2gkw41uGWl4/tlnPIJD4+ZJApWjtgSOjz/5CEuXr+RUtyFAhzEjR3FZo9VuxbHjx3E4Nxf19Q2IjemC/JOn+G+abmJSAl547v+QkdZVJNWUPaUyxl5XrckCVGvw1uyIp+CXhy3hK+dgzdECHOqVFYNTmzvtqwIxrQ6vDbBrUsySjz5r1vPYtmM3br91CqoaqvHFl18zyYtPTMRjDz4Av2YHdh/Yj91796G4uJSJbJ8+vTFy6DBs3rod23fv4R3Su2c2/u+pJxEVFcVI1ZYZeB6UHPz67ttv8fW/FrDbOnzIQAzKGYBN27Yh9+gRWCw2pCYnY8iAAcjIyMAnX36F3MNHWSsMHz4Yzzw1g/tWWCISEGQwelMwpalRUWI0QlIKTDxpCE9E1cMO9Z1zSCBrwTIUPSfUmwbDUh5CqEhX8Q6ByGqxsL0k8tgCNEo9hkrfSdciXvLhBx/hh8VL0adnNqbeNgXbd+9mNZjVPQsD+/WHEw7U19aioLAA+/Yf5DqKguJi6HTU8BSIsgpyf4Gc/n3w9JNPMjls/0c785UrVuCtue+xiUpMiENNbQ3XnKQmJqNXdjb69u6FtLR0hIZH4NiJPGzZup1JKxHgMSNGiFICqdBHrT3aA4ewIioto1S3u5lyJaPnrufVM3VT3ZIr7qMrK4p9RHGM2kApFW4up8hdQ6h8f5Hj0DEx++Lz+ejXrz/GjrtIWwepKg7W5i8ouiqSaUsWLcKnX33D+Yd777wbF449n1+TSZycyCJ3uIE8m5IiHMrNxe79+5F/8iTq6hs4UTVs8GAOloWFhbaDjZZacvvWrXj2+dmwOe2cBOyakop+vXoyQFNSUhERHcUkU0roSrkWO5s30eBE+0VupxCJRplvyIMRIGipAuQ4TElRMc8jPjFBiXqKz8oxF/fkoTof7baQgnDwZ30Dh4m8FfcEpsveKdVLgh15LiWQQs7lpaWY8/Y7+PfC/+C+u+7Fg4884Cq1d1MhHFOQihToby6+tdmwYf06zPvkcy60yUxPx2OPPIyEhHhFRYtciRyDoc+JVsqioiIOz1P1d17+SZw3bBgenD4NwcHuNahuu9ADdA4dPIDnnv8HEuK7oG/PbGRnZSE5NQ0RUQSKQKVMkPm2VDKg8DGZdEoJQbGerr4bjWZQlIRWWzianZj9/Is4cTIPjz36MNfiinXQLrp6NWRZahfInbeIE4x9CIJJnEMmT1Lk01URo7U5WgUsHpHGqKoox3PPPIu1Gzdyo860adORnpHeooLaVZon6Q5Jm5AmIHO0fftWvPv+x2iyUm2HE1dceimbF9qVitpVp+alQhhKZJF7W1RYiFVr1mDkiBEYc8H5XCWmjs54ZvyunUWvU77ni/lfICM1BTmDBiIqMoY1BUUslYiP6ouClMSYLCoFwMoTirlo4amoRyeZFPK23nnzHXw0fz66d83AP2Y9h/4Dc6TOvjbIp0feoegqHrvv4JBUnLTUkiIRg1CGorD6liya4hRvv/Emvvv+e0y+/gbcdfddiI6NlhJjWvXnXiovHjs5L2OzWbB/7z68OWce6k1m9uHjYmLw6MMPoVfvnkothaRcXXteWgzydhYuWYITJ/Px6EN/40AZucXaH7Uqd/9bSMBqbcKixUuxY9dO3DRpErplZnHCzFW/Kq5IzymAVaf4WLGJkL54i1TnqhBE1U5sAQ7hTjfWN+L7f3+Pjz7/DLHRUXhp9gvo1aePpsxQnVSUF4u3nPocFTdh+QSOJpNZ+SIGrdJytwNCIMpkJdjQu5Yu/BGvv/02rpx4BW67488IjwjlnInYUdLXRslES/W1DyIW4kqBE8hO5Z/Ay6+9zYU/8o68/qorMWXqLVJeRBqHajHIvldUVODLr77GslWr0DO7B16e/TxHI9sGh1pjuCBEWmzF8p/xxjtzuUj6z7feiuHDh7mW0b2pysU6XVpdyuYqSRH5seTFMIVXzI2QNcU6bFYL14U0NjSipqoae3bvxseffYaePbLw0suzERkVI46mULauSpfLRdR0XY31dPEbn8HhtrUUfaG1zuIG4jlh7WjxCs+cxqOPPcpBqSdnPImgkBBOfhEoiPwY9AFK0EXWei4e44IjRUZpx1I75Htz38fuA4fYNhIZ7d+7N5588nEOm3uyvfknTuCLf36NDZs3w9xkQU6/fnj9lRc5nE69tq4fT3yjpS6m8a9etRqzXnqNo7EUULvphhswZvQoBAZROF4yVJJ5c2kHWS4CdNTpJ79G+SauNLfb+ZQAyjNR+J2OmqDCppqaWlRUVaKivIJJPdWmBhmNuO66q7mUcu4H7+PmG2/An++6iwNsrrVoWUfccj1dz3QQHC0JjyC54nll46vAQRnDhd8vwCeffIqnn34Kvfv2YfNAPxSJ8/c3iupvVdjchXNttobsLJkVs6kRq1auwpff/BvUDUcNQOefNwLTpt+L4BA3z8PPD4cOHsSHH3/KQbC42BjkHstDr5498carLyImJkblGrq5dpoYgJZJNTfbsXHdRjz7wouIiAznguGqqhpcd9UVuO6aqxEUQm2OooKNLsNhbukSlP2tqqpGcHAg86TKikoUFRXzP1r4iqoq1FDo30RnjzTx/Pz0egQHBnJ1fWJCArvPXbrEiCYrnoMOc995Fzt37cIrr76CzKwsNrGKlylrEZHldKlWd5T4GgQjs+JRRanMhicSSkKhBZ39/PM4kXcCjz3xOJLTUtjHJ0CIczVEBbhonMNhAAAWAUlEQVRUCaFShao4sfQsNyrbLbBYLCgtKsRb78xD3ukCpCTE44G/3ose2T04/S66tfx4B27ZsgVf/vOf/PfE8eM5gvnlN98hPSUNb73xMqKiY1X5Iu0s2tpdlF/ZtmUbnn1hNoYNGYhhQwZjw8YtOJqXh/PHjMI1V17JC2e12GA2m7lomjYFJRuLCkuwbPkKxMd3QXx8PA7lHuGCarOliVU9tUgGBRkRGxXNlfB0nENaWgpXwEXFRnOLJIHNZrdyFpk0Km1CSis8//w/8KcbJ+OGP/1JKmRSz6IVNipzHskU+uTKNpErK3sozMBlpSkRUlfdj0pnCJNSX1eDh//2ENcgUOHKFZdfiVFjRiEyOlpT86g2SIrnoOIeshLmTntrE8wN9fj440/xw7Kfcd6QQXj4wemI6dIFxgDajf6sln9euQrfLvieG42umHgpZ3I3bNmKMwUF6Jqajnlz5yAiMtKV02mBhta3GJkAsvVPzJgJvdEfQ3MGYMTQoVzGuGnbdvTt1QsZaemgWERpWRkaTCahAQDUm0xoMDUiuUscu9OUpKNempDQEMRExyA2NgYRURGcJCQTJU4JIMBLR11JrRKkFci80QYkrfXL6jX4+ttvOIUw89lnhfemoYVtuiqKNumQWWm1XkMpT5WlK7uvfigpKMDMmTMZ+bm5uSirqMbI80bi+uuvR3bvnpyV1AS7PIZ9XCCktgAyLXmH9+ONt97FniMnEBcTjYcfuA/njRiJwKAQWJusWLR4EX5cupT7QC4YMwp79h/Arr37ERVOGdhmzqe88PwshIaGe92Br8yOz9iw4/ixY3j51dfZDDSazIiNiQEcDpwsKOAYDGkBcWaZmCGlzbiuhJqs/A3o3S0Df5v2V6Rn9VBH0kW/rPyPCpbpGlJVO5+Fxg4z5XQCmJTu2L4LS39ajuP5x9k76pqexqYlKjpG0R4umLsBxN2Ssrn3Ic4hmxXZcXVXvtrbCXdO9iIKTuXjzdffxL3T/wqHzYr/LFiAX7dsYxJ4yUUX46prrkJ61wwuauH6DoXJyR06agYimplIcyz78XvM+eAT1JttTGavnnAppk27DxarHd8v+AHrN23gRFhGehp27NmN0rIKxHeJ5fB5eXUt0pJT8dwzT/HRUbJL2ZYZoQUm4llVUYXKigqcPJmPvfsOYN2mTahvrIfVYlV6XEm1sgsrVYdJapfHTk1NMWEBcNibYTE34JabbsaEqydxgI/OHiEvSLQ4iHIG4cmRCRbdenp/A1eOWaw2bghbvPgn7Nm/jw+2ueaqyxHXJQ5LlyzBjJlPIyEpRT45RkUztKvV4lRQ5hw+tCYIcLjK16W2bJV5kcWqVcP0qKy4AK+8+Aqm3DYVWdnd2Ubu3bMPy5evwJ69+5hMTbhsIi4aOxaJyUm8s9yTbcqiSb0s5sZGvDvnXfxn6U8i2ed0ck7lnrvvwKo1a7Ftxw70yuqOqOhI7Dt4CPWNZiQndEFyUjLOFJagqLQUGampmPHEo0hISOSdLHfVuQerlHs7gf279+DTz+ajtrYGVbXVKK+shp2qspxOxERGcntDdW29qFPh1kkBEuFW6pCRlIi+PdJwwcihMAYGY+/uLUjN6IHuvXK4wInMA59EZBDdeLRIVAFG6X7iIfQcHT535PARrFz5MzZu2gKDQYfRI87DuPHjkN0zG6dPncbnH32CBx55CInJqaKmVS3AFv6kipxK9IDu73Xfigsc0rZWfHitGdEaOHHMY319DWbPeh45OTkYff4obuQhwVBJ4IH9+/HjosWc90hOTOYGp/GXjedzsZR+0Ra+OEAtlU88MQP7cw+L/lI4EREaxr2n1H6YnpLEKrysopIjs2Razh81kqusfly0CNv37uNdOah/DiZddw0fOkf1rLQzQwKDeCHIzlMfLbuXzaQ1mnDo4GGsWb8GYy8YjcLCIqxYvYZbHylqe9fUKeg/oD/Wrd+IjVu2sPtJ94iKCON6jvLKGgzL6YfRg3txVJaKh9eu+hl9B56HrD45ooKcuuUMVNlFlXGiopyLoNhdd+DwwcNYsngJNm3ZxIC78Pzzccm4i5Gels5ljgSuI7lHseTHRfjb449ydZzS1KXRHepgg8vV4NXljjcfwGE2mSTtow2BycTRtX7S2V8SZhzN4jCSD96bi/z803jgAcpjBHH2knYWVUeR57F2zVosWrIUxSUlGNCnPyZNnozBgwchJDyU7bZ7Tcfe3bvx+JMzUF3foJwjQRWigSGBiIuNRkhwECw2B6IjI9G/bx8MHDAA1TU12LplKwpKikFZRGqtrDc1sbcQFBzMBJHmo9f5MXBppuERYdx3S8TO3tzMsYXa6iqEhwSjpraezVtIcCDKqdLLPxAjhw/FgL69UVRAxzXsQnF5BS9JWLARpRVVoHrl2yZfiUmTJqO46AxWrViG0IgEXPunWxFNBUeqaKqor/Xj7vpTp05jxbLl3IpBHs2wwYNw1ZVXsKYgEy48FhEe+GXlGpw+fRLTH34IwSFhrsJj9T7WkFQpT6dSIB0gpNrglidnWbFmkq3lSnNnM7Zs3IBXXnkd999/Py4ZP45dMLOpAU0mk1Dnej0orL1+w0as/GUtGuoaMGzIMFx9zVUYkJPDXWCye067acnCH/D3mf8HY1AwdBzsEXEEWihKv5Pm6ZGZyVFQiiSSZqLiH3o+nrwku40zs6dKymCxO2AwGpVeU4pANtTVoo5S8DYHAoMCEZ+QgIDAIAYUxVhs1iYmiKnxsUhNiONSxMKySpRUVHLGNZ1qVuNjWasUllehtKICjQ31sJhN6J3VDbfedAMa6muxePEyHDtZhBdfehn9cwYLziJ19xEo8vNOcDPTqjW/oKGhDoMGDsD4cZcgm112gzj3zKBHgDGYtV1VRQXmvP42Bg8bhOsmT4ZeJ+pPNRxRXcbZwhkTAQXS7l4n3jSurIIwF7HRUBxlJH5sR0l71FXX4PXXXkNZaQVmPjMTGZnUbEReB4GkEaaGekY/WSvq5Vi0dCm2bNuOkKAQ9mzOGzEcySmpDBISxuqVK/HaW2/BP9CIkGBxXqcoy3YgPDwEl1x0ITckFxaVorKmBtFREchITkF8bAwiI6PY5aX67Z27dmLvvv2wNftxbYVocfVj4pyff4Ld4dCwMHTLzOQjIqgw2o8W0G5HdHgI+vXM5lgGbZTG+nouKi6qqEZpVTV7LXHREYiMiEBldR27t+VlZTAGGNCje1cuoD6ad4JPB3jt5VfQt99AlhXds6iwCFs2b8Eva35BcVkxevXMxqXjLsaAAf25FpbkRKYwMDgEAQGBvJgUWf3+u39h2U9L8fiMx5Ddqw+TfqWHtvVSKw0PJ3gIcHh5eIsMDiXWwZqoFXAo3oafdM6V6Fk9lnsIL7/0KmJi4vDIY48irWs6Ezkqs+czLqjSvKGedxQJcdXKlVi26hcuBww0BvGJOdS1Thiob2hASTkJ2siHuVIgjRrbHA4rmm029OvfF0HBIVxtnpYQz8GjhOQkxCckIywigkke7dHSkmKs/Hk5Dh/KBRkSBxU6G/QcJ+H2CfaeSL3r2X1udtjgr/dDaGAQRo8ehZxBg7mjnwBFZQFkckqLi1BSUoKSiiqcKS5hjVFfX4edu/awxAIDjXxqMS0wNUUR0Hr36ImwsHDmaNTnUlRSjPLKCkSEhuDSSy5ibUEJwqCQME49UJuEEuyTNMHWjZvx1ttvYty4izD5pptgpLIBblmQGqzbBIdUrCMdjOMjOIS3ok1rC6i0eE6VTBQRTXGeBL1z45q1eOvtOeiZ1RP33HcvMnt0V07yoavx+5uamMTmHzuCzz//gsv7KBZSXFyG4rISnDxTgCISutnMpI3UfkhQKHR6f148i8WMC88fjZy+fZAUF4/4pEQkJKciJDxCCIoLdV2bhaKXBWdOIy/vOE4XFKCqsprbIdh7kOowqKiItFZsbDQflJvdszf3+BKI5INc5CpwWtyaqgpU0AKXV+DEqTPs7u7cuZtjGwHGAMTGxbMnUlleiprKKhiNAYgmcxgZwV1tEWGhaDSb0CU2CrfcdAs3hoeGRcJIG0TKIMt1GnQq0o5t2zDv3bnI6JaG6X97AJGR1OwkgM7nkWhqUtW2xM2ToYNpeIP4pDk6Bg4u0KHTeRx0OmAzF+ps+fVXzJ//FR04gBsm34ALLroQkRyllArRuX/VwTb/sw8/RH1DI0cRK6sqcPDQIe5VqagWLQc1NdW8O7rExiIoMIR3ekCAHtP+cjf6D8hBVEwXJr3kHjOURSRKu4fk0D0RO2qDoJA0n6AjnS/GfTVSnIGThPJhamJjyMFiOa5BWoR4FpmNxvo6VJSVske24IcfyZrDz0AaTpyxQaaUuEOw0Yh+vbIxfPBAZGZ2Z82wbu069B3QD+MmXgGjMVhznCYJizRfVUU1Vq6g4x0WIi0lCffc9xekZWRIe1bn9rXjnpwJFVD45Q6DQx3paC0HIRfMSq9LB5+RwGU2Tbtx/569+PqfX+Po8TwMyhmECZdPRN9+/RAeGc4LSYkpev+h/fvwztvvoKS8nPMx3bp2Q7++fTgWQDWkR47mstmhkHNIaCgC9P6YMP5i3DL1VkRGSwk1dXWUEg2UG3yldhz1dKRMlWrpNQUrosJMitWpazk1u9NV50n5lONHcvHTT0uxat0m1DfUMbElgknkdczIEejXpzfyT5zmI7mJWFIoPTIsFPdNn4bktHQ+w0OkuGmPObmS/RAFwH5cjL0H9mHkiGG4ecotSExKlsAqAE1E39WuIGt5zWTlMhINUWDNwfmp9n/8XBFS9SkO7h+UUCiKIV21YnwUAaWi7aBMpsxbqiorsGb1aixdugw19XVsasacfz4GDx2M+MR49rXJo9m2eRM++ugT1NQ14ILRo3He8OHwD9Dj9TffQmlFOSw2cYhaWHAIRz3vuOM2DB5G7yGVrzkgRDtgabgtCLscJGJZSmkAdUjfbV+0VTXOWoSbx20oOH0Kb8+Zh9zjeWjib3poZDf/uisn4sbJN6K8rBxbtu3E0hXLkZIYh7/efz/6D5Q4jQ7sXpPJO7B3H9asWYsDB/dzI/gVV0zEqDFjEBEVySZBWBHRBSerY+1BESoNopqL60/JrHgPDkq8uWJt0pHeiqqWC175CRXnkPYX/xIN1OKUXslf47Gfys/HyuUrsGHTJs5MdomNw4D+/dG3Xx/+SozmZiuOHz2GXXv3Yt++A4gMD+dOsuLSIpitdlTV1XM1WWx0DG6feivXUpLqT05NZm2iripTxqmYWqWRT7WDVBiSywhUCUAGgwdEuVeNy49JC9ZW16C2phbf/XsB1q3fIGnRZvZcosJCkd2jJ07m56GorJy79cZfMhYDBg3lWlRTo5mTd1SvsX/fPhSWFCAsPAzDhwzBxeMu4bpVMtmk8ERZALVJUnO3ThqnkLcmtCFFlVvWkgpDKRqzfdQc7SsZd3BIO08SsjhDS0TyaNG411Ov40BPSUkxDh84gF27drO5oYATTZBdNnJZQ0JQUlrC53CQD07Z1yarldPgdE0KVGWkpnGBDKnrhx9+GH3693GdsqfmzhpJuUJsnhbYvWSxNRm4f5b3CbnFdgcW/vtHLFuxDA2WJtQ11IG69zlGITVGEyl2OuycSujRPUuYBOhgNjdxYTSZWPr+mK5paejdtzeysrPQpUucOCNM8qjI1PIxDPJR36rCbMWyKjJQ5a0kriHPix5y+Lxj4Gi5bdzMrXrrycZZc1AInw9Ok5I4CYeJpcPrqbqprKSEjzg6fuw4jhw7giPH8zjdTS2ffIQkBc5YfYoDXuUyQ7LVYWEhSE9Nw9Tb/owevbMpLSrZUxUiNITd1VgkKz7lZTfNodGQ0izV6lijOaXPkjnYsmEz1v+6gSu5qJ/WZG7kr8+w2uhIaxvsdEoxZVmZ7IoLx0ZHc1icDo7LzOyG9NR0RHeJ4a587pu1i8PrSCfQBqOeHAKIrDFkUMtZYdeiuLWnKjpFzJqIg3zehzfKQOEcre8a91daGGaFKIkdJYy4ODdLmBv6IXXoql0QBcXkVp45dZqJJ3k7dFRBTVUlwsIjuGFIPrKJTuKj6qvQ0GA+0CSS+kboTA1paBpl4WkiKowIutEa6VZfUN6K7qzf9Xm5AZryLxQxpcouU0Mj9/ASSGqqa5ikhoaEITIqmt1deg+ZVDpGkr9sSK6O5xMK5LPSOM8nNgafCy8qzoTZk46e4tVWJR80+1qkOrRlGCK56hs4zE0aq6X0xqqLaNuDmeTz8S/+tiJxFZmwKalq+uYAOqqRJsy/BVMnU0QCpnyGv8HI+RD+dibq1ufaB/HtCqQpOIElde3L3oViHtzMiyIehczLJLQdcKjmS0ciiOm1tNOiZ8WV0Wa6TgsoyYCCbaQtyaOjVDyXTRIY2O0W32HHx1Px14SIoBzXhND83Aqzlb4USQeoa6Va1uKICSjPK7vIR0Jq4a8OFZeS7ITmqLRW2phUJEjl5aiad+SyfRogezQcUqd6BjuaOQglGoL4hD6bXdhpcvU4+ufPguPsLf2WTvAjwfIx2dwpbhDHE8ibXSbDbixdXVov7yZFc7ipHMUbZjBIAlY1LbnvET6PhL8RQZT00Q+dRyJMgTgViAunqZbDamVNSDaf5iHG4Dq2kr8sQMreeq5Bca2PAIpr8O5koIXOk7mHHATzlnMQONTQUMlFIwttI7KaIUtHB6ig5So1lNoCJW+IgcJHW1NAysbuHoWm5fpLoQko0EQkXXzpn6SMxDHWAYFcY0m7kHeg8m1JQtV6jCK72x53j8v9Gx1b05Ly52STxGMUJxlROwFpCI73kKaTkoXyEZicdOODWURTEZ9RSnUd0nEIMqcQEU/XPuU5qcDuItAaGKtGLJ4XGkPe1tr3+hTncAeH5qBatXqVKsDUstNwP2ll3EmcK1YgwY4WVDqkhIXG/0T9JP/Hv+WQp9jBMinlY6xZ3bqOpJKvIfe/aIrKpVvK3h0/lExgaxho83ml90S6juT6spaT58AnKwsTKPiN+D+50MjVzinNQ1p9ZViSRlUIsrS2GrOiCNkT8mVwyLgS7xHGz1ez0kThcxUkWrQ4tS1Gl5nX6miZEsmmSpMDUAlZVq3tksQW+0NS+/KX52jKEOU3t+QWGnHKml09RVWfsprxisVTGVm3v12XcFP/Ko0qjVgKgbtu5PIlpHVQDL12+7nUiPS8y/WS7uLBTkrQEL98BIfdbtcYLxlhGkj4iYCSJ/4hI9p9cUWtqbR1VWsl16DKT7k/9gRFdzdTjo5q4hQ8QA9Es5XnNWbSTaYsA3VAzA08brNyS1B6AQ6+nmwCXBfXGIB2XTBPu0XtlmlNkgwOPk7KW87h9DYS1CE93Pmhc1kCfp3gOJeX7+yOvRMcZ1e+5/TVO8FxTi/f2R18JzjOrnzP6at3guOcXr6zO/hOcJxd+Z7TV+8Exzm9fGd38J3gOLvyPaev3gmOc3r5zu7gO8FxduV7Tl+9Exzn9PKd3cF3guPsyvecvnonOM7p5Tu7g+8Ex9mV7zl99f8HDY+pVeN5EvAAAAAASUVORK5CYII=;" vertex="1" parent="1">
          <mxGeometry x="506.94" y="680" width="123.06" height="93" as="geometry" />
        </mxCell>
        <mxCell id="wK7VieCMkAIBVdtHB5rd-39" value="SS" style="swimlane;startSize=0;" vertex="1" parent="1">
          <mxGeometry x="120" y="190" width="550" height="600" as="geometry" />
        </mxCell>
      </root>
    </mxGraphModel>
  </diagram>
</mxfile>
